<!-- Generated by implementation/scripts/capture_tui_assets.py. -->
<svg xmlns="http://www.w3.org/2000/svg" width="1248" height="610" viewBox="0 0 1248 610">
  <title>Clean TUI · 只读汇总</title>
  <desc>未指定 --yes 时，生产 Clean TUI 明确说明只输出选择预览。

Clean · 扫描结果 / 汇总确认

选择 2 项，共 6.6GB

本次未指定 --yes，只会输出选择预览。按 Enter 继续，Esc 返回。

















普通项进入同卷 Trash；Trash/Docker prune 会永久释放空间。</desc>
  <rect width="1248" height="610" rx="16" fill="#0d1117"/>
  <rect width="1248" height="44" rx="16" fill="#161b22"/>
  <rect y="28" width="100%" height="16" fill="#161b22"/>
  <circle cx="22" cy="22" r="6" fill="#ff5f57"/>
  <circle cx="42" cy="22" r="6" fill="#febc2e"/>
  <circle cx="62" cy="22" r="6" fill="#28c840"/>
  <text x="624.0" y="27" text-anchor="middle" fill="#8b949e" font-family="Menlo, Monaco, monospace" font-size="14">Clean TUI · 只读汇总</text>
  <g fill="#c9d1d9" font-family="Menlo, Monaco, Noto Sans Mono CJK SC, monospace" font-size="15">
    <text x="24" y="75">C</text>
    <text x="34" y="75">l</text>
    <text x="44" y="75">e</text>
    <text x="54" y="75">a</text>
    <text x="64" y="75">n</text>
    <text x="84" y="75">·</text>
    <text x="104" y="75">扫</text>
    <text x="124" y="75">描</text>
    <text x="144" y="75">结</text>
    <text x="164" y="75">果</text>
    <text x="194" y="75">/</text>
    <text x="214" y="75">汇</text>
    <text x="234" y="75">总</text>
    <text x="254" y="75">确</text>
    <text x="274" y="75">认</text>
    <text x="24" y="119">选</text>
    <text x="44" y="119">择</text>
    <text x="74" y="119">2</text>
    <text x="94" y="119">项</text>
    <text x="114" y="119">，</text>
    <text x="134" y="119">共</text>
    <text x="164" y="119">6</text>
    <text x="174" y="119">.</text>
    <text x="184" y="119">6</text>
    <text x="194" y="119">G</text>
    <text x="204" y="119">B</text>
    <text x="24" y="163">本</text>
    <text x="44" y="163">次</text>
    <text x="64" y="163">未</text>
    <text x="84" y="163">指</text>
    <text x="104" y="163">定</text>
    <text x="134" y="163">-</text>
    <text x="144" y="163">-</text>
    <text x="154" y="163">y</text>
    <text x="164" y="163">e</text>
    <text x="174" y="163">s</text>
    <text x="184" y="163">，</text>
    <text x="204" y="163">只</text>
    <text x="224" y="163">会</text>
    <text x="244" y="163">输</text>
    <text x="264" y="163">出</text>
    <text x="284" y="163">选</text>
    <text x="304" y="163">择</text>
    <text x="324" y="163">预</text>
    <text x="344" y="163">览</text>
    <text x="364" y="163">。</text>
    <text x="384" y="163">按</text>
    <text x="414" y="163">E</text>
    <text x="424" y="163">n</text>
    <text x="434" y="163">t</text>
    <text x="444" y="163">e</text>
    <text x="454" y="163">r</text>
    <text x="474" y="163">继</text>
    <text x="494" y="163">续</text>
    <text x="514" y="163">，</text>
    <text x="534" y="163">E</text>
    <text x="544" y="163">s</text>
    <text x="554" y="163">c</text>
    <text x="574" y="163">返</text>
    <text x="594" y="163">回</text>
    <text x="614" y="163">。</text>
    <text x="24" y="559">普</text>
    <text x="44" y="559">通</text>
    <text x="64" y="559">项</text>
    <text x="84" y="559">进</text>
    <text x="104" y="559">入</text>
    <text x="124" y="559">同</text>
    <text x="144" y="559">卷</text>
    <text x="174" y="559">T</text>
    <text x="184" y="559">r</text>
    <text x="194" y="559">a</text>
    <text x="204" y="559">s</text>
    <text x="214" y="559">h</text>
    <text x="224" y="559">；</text>
    <text x="244" y="559">T</text>
    <text x="254" y="559">r</text>
    <text x="264" y="559">a</text>
    <text x="274" y="559">s</text>
    <text x="284" y="559">h</text>
    <text x="294" y="559">/</text>
    <text x="304" y="559">D</text>
    <text x="314" y="559">o</text>
    <text x="324" y="559">c</text>
    <text x="334" y="559">k</text>
    <text x="344" y="559">e</text>
    <text x="354" y="559">r</text>
    <text x="374" y="559">p</text>
    <text x="384" y="559">r</text>
    <text x="394" y="559">u</text>
    <text x="404" y="559">n</text>
    <text x="414" y="559">e</text>
    <text x="434" y="559">会</text>
    <text x="454" y="559">永</text>
    <text x="474" y="559">久</text>
    <text x="494" y="559">释</text>
    <text x="514" y="559">放</text>
    <text x="534" y="559">空</text>
    <text x="554" y="559">间</text>
    <text x="574" y="559">。</text>
  </g>
</svg>
